<svg version="1.1" xmlns="http://www.w3.org/2000/svg" width="439" height="512" viewBox="0 0 439 512"><title>certificate</title><path d="M393.143 256l39.428 38.572c5.428 5.143 7.428 12.857 5.714 20-2 7.143-7.714 12.857-14.857 14.572l-53.714 13.714 15.143 53.143c2 7.143 0 14.857-5.428 20-5.143 5.428-12.857 7.428-20 5.428l-53.143-15.143-13.714 53.714c-1.714 7.143-7.428 12.857-14.572 14.857-1.714 0.286-3.714 0.572-5.428 0.572-5.428 0-10.857-2.286-14.572-6.286l-38.572-39.428-38.572 39.428c-5.143 5.428-12.857 7.428-20 5.714-7.428-2-12.857-7.714-14.572-14.857l-13.714-53.714-53.143 15.143c-7.143 2-14.857 0-20-5.428-5.428-5.143-7.428-12.857-5.428-20l15.143-53.143-53.715-13.714c-7.143-1.714-12.857-7.428-14.857-14.572-1.714-7.143 0.285-14.857 5.715-20l39.428-38.572-39.428-38.572c-5.428-5.143-7.428-12.857-5.715-20 2-7.143 7.715-12.857 14.857-14.572l53.715-13.714-15.143-53.143c-2-7.143 0-14.857 5.428-20 5.143-5.428 12.857-7.428 20-5.428l53.143 15.143 13.714-53.715c1.714-7.143 7.428-12.857 14.572-14.572 7.143-2 14.857 0 20 5.428l38.572 39.715 38.572-39.715c5.143-5.428 12.572-7.428 20-5.428 7.143 1.715 12.857 7.428 14.572 14.572l13.714 53.715 53.143-15.143c7.143-2 14.857 0 20 5.428 5.428 5.143 7.428 12.857 5.428 20l-15.143 53.143 53.714 13.714c7.143 1.714 12.857 7.428 14.857 14.572 1.714 7.143-0.286 14.857-5.714 20z"></path></svg>