<svg xmlns="http://www.w3.org/2000/svg" viewBox="0 0 64 64" width="64" height="64"><g class="nc-icon-wrapper" stroke="none" fill="#111111"><path d="M32.371,61.2c-.157,0-.306-.005-.428-.009-.1.006-.21.009-.314.009-4,0-6.669-1.888-8.814-3.406a10.056,10.056,0,0,0-3.884-2.048,13.1,13.1,0,0,0-2.129-.18,14.91,14.91,0,0,0-3.006.344,8.257,8.257,0,0,1-1.547.209,2.4,2.4,0,0,1-2.416-1.778c-.147-.5-.252-.978-.353-1.44-.036-.166-.109-.5-.18-.773-4.833-.8-7.335-1.958-8.085-3.712A2.692,2.692,0,0,1,1,47.519a2.24,2.24,0,0,1,1.875-2.341C10.5,43.924,13.959,36.035,14.1,35.7c.007-.018.043-.1.052-.113a1.836,1.836,0,0,0,.262-1.36c-.29-.684-1.877-1.189-2.729-1.46-.348-.11-.67-.213-.941-.32C7.331,31.1,6.9,29.342,7.129,28.106c.332-1.741,2.282-2.819,3.9-2.819a3.219,3.219,0,0,1,1.375.29,5.661,5.661,0,0,0,2.455.641l-.04-.653c-.262-4.186-.589-9.388.841-12.6A16.949,16.949,0,0,1,31.394,2.813L32.422,2.8h.158a16.973,16.973,0,0,1,15.761,10.16c1.432,3.213,1.1,8.423.841,12.608l-.039.646h.006a6.186,6.186,0,0,0,2.117-.64,3.768,3.768,0,0,1,1.572-.327,4.357,4.357,0,0,1,1.6.3,3.4,3.4,0,0,1,2.481,3.013c.03,1.6-1.2,2.909-3.665,3.881-.259.1-.571.2-.905.31-.886.281-2.476.785-2.766,1.471a1.84,1.84,0,0,0,.264,1.364c.007.015.044.093.05.109.144.334,3.616,8.223,11.224,9.478A2.236,2.236,0,0,1,63,47.516a2.659,2.659,0,0,1-.213.9c-.75,1.749-3.254,2.9-8.087,3.7-.043.175-.1.422-.167.729-.106.484-.214.96-.362,1.464A2.341,2.341,0,0,1,51.82,56.07a8.527,8.527,0,0,1-1.616-.186,14.965,14.965,0,0,0-3.005-.321,13.085,13.085,0,0,0-2.129.18,10.062,10.062,0,0,0-3.881,2.045C39.036,59.311,36.367,61.2,32.371,61.2Zm-.439-2.01h.041c.108,0,.249.009.4.009,3.36,0,5.544-1.543,7.655-3.036a11.77,11.77,0,0,1,4.716-2.39,14.983,14.983,0,0,1,2.457-.208,16.789,16.789,0,0,1,3.39.358,8.2,8.2,0,0,0,1.169.148c.32,0,.419-.075.49-.319.136-.459.231-.89.327-1.326a4.95,4.95,0,0,1,.591-1.8,1,1,0,0,1,.65-.393c5.6-.869,6.872-2.006,7.129-2.607A.675.675,0,0,0,61,47.4a.242.242,0,0,0-.2-.252C52.12,45.721,48.222,36.865,48.06,36.488a3.6,3.6,0,0,1-.319-3.042c.651-1.533,2.649-2.167,3.971-2.587.316-.1.586-.185.809-.273.9-.357,2.415-1.089,2.4-1.982-.009-.462-.465-.923-1.162-1.172a2.23,2.23,0,0,0-1.644-.044,7.993,7.993,0,0,1-2.967.827,3.382,3.382,0,0,1-1.536-.376,1,1,0,0,1-.512-.931l.088-1.462c.25-3.967.56-8.905-.671-11.669A15.007,15.007,0,0,0,32.58,4.8h-.127l-1.059.009a14.981,14.981,0,0,0-13.909,8.97c-1.229,2.759-.92,7.69-.672,11.652l.09,1.474a1,1,0,0,1-.512.931,3.371,3.371,0,0,1-1.653.381,7.671,7.671,0,0,1-3.183-.833,1.242,1.242,0,0,0-.527-.1A2.022,2.022,0,0,0,9.094,28.48c-.131.688.739,1.456,2.386,2.107.231.09.51.178.8.271,1.329.423,3.324,1.057,3.974,2.587a3.6,3.6,0,0,1-.312,3.031c-.168.388-4.056,9.246-12.743,10.674a.246.246,0,0,0-.2.256.706.706,0,0,0,.056.226c.256.6,1.525,1.74,7.127,2.609a1,1,0,0,1,.651.4,5.037,5.037,0,0,1,.593,1.8c.1.453.192.883.325,1.337.069.237.158.342.5.342a7.021,7.021,0,0,0,1.161-.172,16.984,16.984,0,0,1,3.392-.381,15,15,0,0,1,2.457.208,11.738,11.738,0,0,1,4.711,2.387c2.112,1.494,4.3,3.039,7.659,3.039.078,0,.157,0,.235-.009Z" fill="#111111"></path></g></svg>